# xmcd
#
# Track frame offsets: 
#        150
#        16133
#        34354
#        53340
#        68414
#        86442
#        110387
#        128472
#        147815
#        164429
#        185013
#        206414
#        220328
#        238241
#        258766
#        272722
#        287426
#        301807
#        320992
#        337770
#
# Disc length: 4709 seconds
#
# Revision: 6
# Processed by: cddbd v1.5.2PL0 Copyright (c) Steve Scherf et al.
# Submitted via: ExactAudioCopy v1.3
#
DISCID=13126314
DTITLE=Ronnie Milsap - 40 # 1 Hits
DYEAR=2000
DGENRE=Country
TTITLE0=He Got You
TTITLE1=Inside
TTITLE2=Stranger In My House
TTITLE3=Don't You Know How Much I Love You
TTITLE4=Show Her
TTITLE5=Still Losing You
TTITLE6=She Keeps The Home Fires Burning
TTITLE7=Lost In The Fifties Tonight
TTITLE8=Happy, Happy Birthday Baby
TTITLE9=In Love
TTITLE10=How Do I Turn You On
TTITLE11=Snap Your Fingers
TTITLE12=Make No Mistake She's Mine
TTITLE13=Where Do The Nights Go
TTITLE14=Don't You Ever Get Tired (Of Hurting Me)
TTITLE15=A Woman In Love
TTITLE16=Stranger ThingsHhave Happened
TTITLE17=Since I Don't Have You
TTITLE18=Livin' On Love
TTITLE19=Time, Love and Money
EXTD=Virgin Records YEAR: 2000
EXTT0=
EXTT1=
EXTT2=
EXTT3=
EXTT4=
EXTT5=
EXTT6=
EXTT7=
EXTT8=
EXTT9=
EXTT10=
EXTT11=
EXTT12=
EXTT13=
EXTT14=
EXTT15=
EXTT16=
EXTT17=
EXTT18=
EXTT19=
PLAYORDER=
